<?xml version="1.0" encoding="utf-8"?>
<!-- Generator: Adobe Illustrator 26.5.0, SVG Export Plug-In . SVG Version: 6.00 Build 0)  -->
<svg version="1.1" xmlns="http://www.w3.org/2000/svg" xmlns:xlink="http://www.w3.org/1999/xlink" x="0px" y="0px"
	 viewBox="0 0 2156.6687 1948.90454" style="enable-background:new 0 0 2156.6687 1948.90454;" xml:space="preserve">
<style type="text/css">
	.st0{fill-rule:evenodd;clip-rule:evenodd;fill:#05364D;}
	.st1{fill:#05364D;}
	.st2{fill:#4C4C4D;}
	.st3{fill-rule:evenodd;clip-rule:evenodd;fill:#4C4C4D;}
	.st4{fill:#08364D;}
</style>
<g id="Layer_1">
	<g id="Earth_Symbol">
		<path id="_150956480_00000152225561789356659010000013350504540646280591_" class="st0" d="M1186.25989,1100.94812
			c-27.00623,45.00586-27.00623,45.00586-27.00623,45.00586v-0.72668h143.16333L1047.3844,798.96368
			c-254.81647,346.26361-254.81647,346.26361-254.81647,346.26361h142.96826v0.72668c0,0,0,0-27.0061-45.00586l-0.05432,0.07422
			c34.8219-47.2887,80.08356-108.75226,138.90863-188.62756l0,0c58.82629,79.87531,104.1012,141.33215,138.92969,188.62097
			L1186.25989,1100.94812z"/>
		<g id="Earth_Chevron">
			<path class="st1" d="M1047.49243,453.1282c84.39978,0,152.81946,68.41965,152.81946,152.81943
				s-68.41968,152.81946-152.81946,152.81946s-152.81946-68.41962-152.81946-152.81946S963.09265,453.1282,1047.49243,453.1282
				 M1047.49243,433.1282c-23.32166,0-45.95636,4.57208-67.27527,13.58926c-20.58154,8.70526-39.06152,21.16336-54.92651,37.02835
				c-15.86505,15.86502-28.32312,34.345-37.02838,54.92654c-9.01721,21.31891-13.58929,43.95367-13.58929,67.27527
				c0,23.32166,4.57208,45.95636,13.58929,67.27527c8.70526,20.58154,21.16333,39.06158,37.02838,54.92657
				c15.86499,15.86499,34.34497,28.32306,54.92651,37.02838c21.31891,9.01715,43.95361,13.58923,67.27527,13.58923
				s45.95642-4.57208,67.27527-13.58923c20.58154-8.70532,39.06152-21.16339,54.92651-37.02838s28.32312-34.34503,37.02844-54.92657
				c9.01709-21.31891,13.58923-43.95361,13.58923-67.27527c0-23.32159-4.57214-45.95636-13.58923-67.27527
				c-8.70532-20.58154-21.16345-39.06152-37.02844-54.92654c-15.86499-15.86499-34.34497-28.32309-54.92651-37.02835
				C1093.44885,437.70029,1070.81409,433.1282,1047.49243,433.1282L1047.49243,433.1282z"/>
		</g>
	</g>
	<g id="BSG_Pattern">
		<path class="st2" d="M1011.68085,742.80682c9.80603,2.59241,20.03888,4.1684,30.56573,4.59521v-26.82562
			c-4.34204-0.21338-8.60352-0.6676-12.79785-1.36255L1011.68085,742.80682L1011.68085,742.80682z"/>
		<path class="st2" d="M1004.74634,712.26703l-30.76685,14.34784c8.96466,5.51727,18.60925,10.07275,28.76282,13.50653
			l17.22058-22.85834C1014.73993,715.94019,1009.66302,714.27124,1004.74634,712.26703L1004.74634,712.26703z"/>
		<path class="st2" d="M957.94763,534.87811l-19.05096-19.05109c-11.67621,14.11389-20.6532,30.5329-26.17029,48.46912
			l23.96625,13.84027C940.67358,562.12506,948.02136,547.43658,957.94763,534.87811L957.94763,534.87811z"/>
		<path class="st2" d="M928.24921,681.39215h33.31958c-8.49683-9.73901-15.35059-20.93353-20.20026-33.14453l-30.72717-8.23004
			C914.30219,654.86066,920.31329,668.79535,928.24921,681.39215L928.24921,681.39215z"/>
		<path class="st2" d="M933.29993,605.95105c0-5.3175,0.37347-10.55426,1.06854-15.67755l-24.68884-14.26166
			c-2.08337,9.65283-3.19293,19.66534-3.19293,29.93921c0,7.24097,0.56085,14.34784,1.617,21.29468l28.9364,7.74847
			C934.60913,625.72314,933.29993,615.99103,933.29993,605.95105L933.29993,605.95105z"/>
		<path class="st2" d="M1042.24658,491.31888v-26.82559c-37.41949,1.52261-71.09888,17.56134-95.54688,42.63721l18.95673,18.94989
			C985.25476,505.86096,1012.22809,492.82233,1042.24658,491.31888L1042.24658,491.31888z"/>
		<path class="st2" d="M1154.79529,648.24762c-4.86328,12.211-11.70337,23.40552-20.2002,33.14453h33.31958
			c7.93457-12.5968,13.94702-26.53149,17.60779-41.37457L1154.79529,648.24762L1154.79529,648.24762z"/>
		<path class="st2" d="M1159.47119,578.13641l23.96643-13.84027c-5.53088-17.93622-14.50769-34.35522-26.18396-48.46912
			l-19.05115,19.05109C1148.14258,547.43658,1155.49023,562.12506,1159.47119,578.13641L1159.47119,578.13641z"/>
		<path class="st2" d="M1162.86389,605.95105c0,10.03998-1.33496,19.77209-3.74011,29.04315l28.9364-7.74847
			c1.04248-6.94684,1.60339-14.05371,1.60339-21.29468c0-10.27386-1.09583-20.28638-3.17932-29.93921l-24.68872,14.26166
			C1162.49048,595.39679,1162.86389,600.63354,1162.86389,605.95105L1162.86389,605.95105z"/>
		<path class="st2" d="M1053.9104,464.49329v26.82559c30.02539,1.50345,56.98499,14.53525,76.59705,34.76151l18.94434-18.94989
			C1125.00269,482.05463,1091.33679,466.0159,1053.9104,464.49329L1053.9104,464.49329z"/>
		<path class="st2" d="M973.33789,693.05591h-36.87238c8.28339,10.60767,18.04834,19.99915,28.97754,27.86798l28.96375-13.4928
			C986.84442,703.42279,979.77716,698.58679,973.33789,693.05591L973.33789,693.05591z"/>
		<path class="st2" d="M1101.75708,707.43109l28.96387,13.4928c10.92761-7.86884,20.6803-17.26031,28.96375-27.86798h-36.87244
			C1116.37305,698.58679,1109.31946,703.42279,1101.75708,707.43109L1101.75708,707.43109z"/>
		<path class="st2" d="M1076.18726,717.26306l17.23438,22.85834c10.1521-3.43378,19.77209-7.98926,28.74915-13.50653
			l-30.75317-14.34784C1086.50085,714.27124,1081.42407,715.94019,1076.18726,717.26306L1076.18726,717.26306z"/>
		<path class="st2" d="M1053.9104,720.57642v26.82562c10.52014-0.42682,20.75427-2.00281,30.5603-4.59521l-17.76929-23.59296
			C1062.50708,719.90881,1058.25256,720.36304,1053.9104,720.57642L1053.9104,720.57642z"/>
		<g>
			<path class="st2" d="M1108.01794,531.16052l6.76941-11.7356c-1.77454-1.29553-3.5874-2.5343-5.43787-3.737l-6.73145,11.6712
				l-3.73706,6.49286c1.81262,1.21973,3.62524,2.51526,5.36401,3.85626c21.89917,16.97083,36.03076,43.52173,36.03076,73.38538
				c0,29.85419-14.13159,56.41461-36.03076,73.39484c-1.73877,1.33154-3.55139,2.62708-5.36401,3.84686
				c-3.25562,2.18384-6.65942,4.14417-10.17297,5.88293c-1.96033,0.96216-3.9585,1.88647-6.03064,2.71796
				c-10.83777,4.45862-22.72302,6.93604-35.1897,6.93604c-12.44788,0-24.34064-2.47742-35.19928-6.93604
				c-2.03424-0.83148-4.03247-1.7558-5.9928-2.71796c-3.53241-1.73877-6.93604-3.6991-10.17297-5.88293
				c-1.85052-1.21979-3.62524-2.51532-5.36401-3.84686c-21.91803-16.98022-36.0307-43.54065-36.0307-73.39484
				c0-29.86365,14.11267-56.41455,36.0307-73.38538c1.73877-1.341,3.51349-2.63654,5.36401-3.85626l-3.75403-6.49286
				l-6.7334-11.6712c-1.85052,1.2027-3.66315,2.44147-5.41895,3.737l6.76941,11.7356
				c-24.13794,18.31177-39.75067,47.29657-39.75067,79.93311c0,32.62897,15.61273,61.63086,39.75067,79.92365
				c1.7558,1.33154,3.55133,2.58917,5.38293,3.79193c3.27289,2.16492,6.65759,4.12524,10.17297,5.88293
				c1.96051,0.99817,3.93964,1.94141,5.97388,2.79187c11.9856,5.06848,25.15521,7.86224,38.97223,7.86224
				c13.83618,0,27.01489-2.79376,39.00049-7.86224c2.03442-0.85046,3.99463-1.7937,5.9552-2.79187
				c3.51514-1.75769,6.91882-3.71802,10.17468-5.86401c1.84863-1.2027,3.62524-2.47931,5.3999-3.81085
				c24.12085-18.29279,39.73193-47.29468,39.73193-79.92365C1147.74988,578.45709,1132.13879,549.47229,1108.01794,531.16052
				L1108.01794,531.16052z"/>
			<path class="st2" d="M1006.29559,527.96899c1.96033-0.96973,3.95856-1.88647,5.9928-2.71796
				c10.85864-4.45862,22.7514-6.93604,35.19928-6.93604c12.46667,0,24.35193,2.47742,35.1897,6.93604
				c2.07214,0.83148,4.07031,1.74823,6.03064,2.71796l3.73535-6.48334l6.73315-11.68069
				c-1.92224-0.99817-3.92065-1.94141-5.9187-2.82971l-6.76965,11.71854c-11.9856-5.05902-25.16431-7.86224-39.00049-7.86224
				c-13.81702,0-26.98663,2.80322-38.97223,7.86224l-6.76941-11.71854c-2.01697,0.88831-3.99646,1.83154-5.93768,2.82971
				l6.73322,11.68069L1006.29559,527.96899L1006.29559,527.96899z"/>
		</g>
	</g>
	<path id="Jedi_Order" class="st0" d="M1044.59863,643.5033c-1.82141-2.65839-11.53809-16.84033-11.53809-16.84033l7.40527,20.36719
		l-22.95819,3.33295l22.95819,3.33295l-8.88708,17.40442c0,0,11.08777-11.65625,12.65417-13.30341
		c-0.64551,25.23737-0.8042,31.4483-0.8042,31.4483s-56.65594-26.29175-25.18054-84.4306c0,0-39.25195-43.32581-3.70312-69.98792
		c0,0-60.72931,36.66016-22.2179,99.61285c0,0-31.84595-31.10571-15.1825-62.58258c0,0-28.8833,40.73444,6.2951,85.54224
		c0,0-9.62762-5.9256-18.14441-28.51404c0,0,6.21259,67.24554,81.44733,68.12793c-0.00012,0.00885-0.00012,0.00885-0.00012,0.00885
		c0.25073,0,0.50085-0.00159,0.74988-0.00238c0.24915,0.00159,0.49927,0.00238,0.74976,0.00238c0,0,0,0,0-0.00885
		c75.23474-0.88239,81.44739-68.12793,81.44739-68.12793c-8.51685,22.58844-18.14453,28.51404-18.14453,28.51404
		c35.17859-44.8078,6.29517-85.54224,6.29517-85.54224c16.66345,31.47687-15.1825,62.58258-15.1825,62.58258
		c38.51147-62.9527-22.2179-99.61285-22.2179-99.61285c35.54907,26.66211-3.70312,69.98792-3.70312,69.98792
		c31.47546,58.13885-25.1803,84.4306-25.1803,84.4306s-0.15894-6.21094-0.80444-31.4483
		c1.56641,1.64716,12.65417,13.30341,12.65417,13.30341l-8.88721-17.40442l22.95825-3.33295l-22.95825-3.33295l7.4054-20.36719
		c0,0-9.71667,14.18195-11.53821,16.84033c-0.82471-32.23676-2.87048-112.22186-2.88037-112.59937
		c-0.00391-0.88702-0.00391-0.89185-0.00391-0.89185s0,0.00079-0.0094,0.36865c-0.00952-0.36786-0.00952-0.36865-0.00952-0.36865
		s0,0.00482-0.00403,0.89185C1047.46289,531.53473,1045.42151,611.3396,1044.59863,643.5033"/>
</g>
<g id="US_Flag_Play">
	<path class="st3" d="M973.60571,859.33307l45.96564-60.36938H733.67694c-60.19037,0-70.26636,35.66962-83.61768,60.36938
		C650.05927,859.33307,973.60474,859.33307,973.60571,859.33307z"/>
	<path class="st3" d="M920.1095,930.98828l45.96564-60.36938H680.18073c-60.19031,0-70.26636,35.66962-83.61768,60.36938
		C596.56305,930.98828,920.10858,930.98828,920.1095,930.98828z"/>
	<path class="st3" d="M866.34296,1002.64349l45.96564-60.36938H626.41418c-60.19031,0-70.26636,35.66962-83.61768,60.36938
		C542.79651,1002.64349,866.34198,1002.64349,866.34296,1002.64349z"/>
	<path class="st3" d="M812.57642,1074.29871l45.96564-60.36938H572.64764c-60.19037,0-70.26636,35.66968-83.61768,60.36938
		C489.02997,1074.29871,812.57544,1074.29871,812.57642,1074.29871z"/>
	<path class="st3" d="M759.49823,1145.95398l45.9657-60.36938H519.56946c-60.19031,0-70.26633,35.66956-83.61765,60.36938
		C435.95181,1145.95398,759.49731,1145.95398,759.49823,1145.95398z"/>
	<path class="st3" d="M759.49823,1145.95398"/>
	<path class="st3" d="M1123.70776,859.33307l-45.9657-60.36938h285.89453c60.19031,0,70.26624,35.66956,83.61755,60.36938
		C1447.25415,859.33307,1123.70874,859.33307,1123.70776,859.33307z"/>
	<path class="st3" d="M1177.20398,930.98828l-45.9657-60.36938h285.89441c60.19031,0,70.26636,35.66962,83.61768,60.36938
		C1500.75037,930.98828,1177.20496,930.98828,1177.20398,930.98828z"/>
	<path class="st3" d="M1230.97046,1002.64349l-45.96558-60.36938h285.89441c60.19031,0,70.26636,35.66962,83.61768,60.36938
		C1554.51697,1002.64349,1230.97144,1002.64349,1230.97046,1002.64349z"/>
	<path class="st3" d="M1284.73706,1074.29871l-45.9657-60.36938h285.89441c60.19043,0,70.26636,35.66968,83.61768,60.36938
		C1608.28345,1074.29871,1284.73804,1074.29871,1284.73706,1074.29871z"/>
	<path class="st3" d="M1337.81519,1145.95398l-45.96558-60.36938h285.89441c60.19031,0,70.26636,35.66956,83.61768,60.36938
		C1661.36169,1145.95398,1337.81616,1145.95398,1337.81519,1145.95398z"/>
</g>
<g id="Infidel_Props">
	<g id="Arrows">
		<path class="st4" d="M1500.18347,1321.95544c-0.04126,0.052-0.09705,0.12109-0.09705,0.12109s-0.05237-0.06226-0.10852-0.12781
			l-1.44812-0.03467c-0.37305,0.45959-0.73157,0.90186-0.73157,0.90186v-0.92236l-123.39551-3.11304l-3.70996,10.85913
			l290.66895-3.61731L1500.18347,1321.95544z"/>
		<path class="st4" d="M435.95181,1318.78052l251.64005,6.32947c0-0.01379-0.01147-0.02405-0.01147-0.03784v-0.89832l2.0191-1.90381
			l0.93713-0.88452l1.57507,2.89868v0.93298l37.28992,0.80518l3.99731-10.85938L435.95181,1318.78052z"/>
	</g>
	<path id="Props" class="st1" d="M794.65442,1301.64331h-35.14398c-1.31354,0-2.17963,0.5459-2.61609,1.63416l-8.83484,22.03308
		c0.10095,0.96729,0.198,1.87268,0.198,1.87268l-0.52246,8.98645l1.66101,3.49658h1.47418c0.96271,0,1.60095-0.40088,1.922-1.19556
		l4.18042-10.42737h27.0968c5.01636,0,8.995-0.94324,11.93634-2.82263c0.01489-0.00708,0.02216-0.02087,0.03705-0.02759v-0.69812
		l1.0824-1.25415l0.85114-0.98462l0.57483,0.86719c1.68707-1.6792,3.06403-3.74536,4.07574-6.26758l1.61243-4.02161
		c1.48175-3.69324,1.50775-6.47803,0.08563-8.3645C802.89557,1302.59009,799.67065,1301.64331,794.65442,1301.64331z
		 M793.1615,1326.26404l-2.78809,0.04138v-2.27319l1.81769-0.02783l0.9704-0.01392V1326.26404z M793.77374,1313.97449
		l-0.82855,2.06628c-0.6532,1.62708-1.60486,2.84338-2.83667,3.63806c-1.23523,0.7981-2.96735,1.19189-5.19171,1.19189h-25.06659
		l4.44147-11.07703c0.17163-0.43164,0.54504-0.65271,1.11218-0.65271h24.21582c2.22437,0,3.63885,0.40088,4.23242,1.19861
		C794.4491,1311.13464,794.42694,1312.34705,793.77374,1313.97449z M742.96143,1338.01819l-0.1792,0.45251
		c-0.32104,0.79468,0.01868,1.19556,1.01892,1.19556h1.16803l0.0672-0.46313c-0.03705-0.45251-0.07837-0.82581-0.11926-1.22632
		L742.96143,1338.01819z M1214.81409,1301.64331h-35.14392c-1.3136,0-2.17957,0.5459-2.61609,1.63416l-14.11218,35.19324
		c-0.32104,0.79468,0.0188,1.19556,1.01904,1.19556h7.06897c0.96277,0,1.60107-0.40088,1.92212-1.19556l4.18042-10.42737h27.0968
		c5.01624,0,8.99487-0.94324,11.93628-2.82263c2.93335-1.88293,5.1394-4.67114,6.62109-8.36487l1.61255-4.02161
		c1.48132-3.69324,1.50781-6.47803,0.08557-8.3645C1223.0553,1302.59009,1219.83044,1301.64331,1214.81409,1301.64331z
		 M1213.93347,1313.97449l-0.82861,2.06628c-0.65308,1.62708-1.60474,2.84338-2.83655,3.63806
		c-1.23572,0.7981-2.96741,1.19189-5.19177,1.19189h-25.06653l4.44141-11.07703c0.17163-0.43164,0.54504-0.65271,1.11218-0.65271
		h24.21582c2.22437,0,3.63892,0.40088,4.23242,1.19861C1214.60889,1311.13464,1214.58667,1312.34705,1213.93347,1313.97449z
		 M1359.14478,1301.64331h-34.68872c-3.97107,0-7.22192,0.81909-9.74866,2.44617c-2.53052,1.63098-4.32605,3.76965-5.38586,6.4126
		l-1.58997,3.96313c-1.20581,3.00586-1.17212,5.31372,0.10437,6.92383c1.27271,1.61011,3.80701,2.41858,7.59912,2.41858h24.54419
		c2.26904,0,2.9967,1.01221,2.18689,3.04053l-0.19031,0.47302c0.04846-0.00671,0.08215-0.04456,0.13452-0.0481l0.44788-0.01379
		l0.51489-0.01379l0.90686,1.1781v0.28308c0,2.47412-0.74255,3.76611-2.22815,3.84216l-0.94788,0.03125l-0.97034-1.24756
		l0.06348-0.33154c-0.10474,0.09351-0.18652,0.21765-0.30237,0.30042c-0.73914,0.5459-1.74316,0.81201-3.00818,0.81201h-34.36047
		c-1.00391,0-1.66443,0.40076-1.98547,1.19543l-2.06763,5.16187c-0.32104,0.79468,0.01868,1.19556,1.02271,1.19556h36.25989
		c3.97095,0,7.21814-0.81873,9.75244-2.44263c2.5271-1.63416,4.32605-3.76624,5.38599-6.40906l1.73926-4.3468
		c1.20544-3.00586,1.16833-5.3136-0.10474-6.92371c-1.26892-1.61377-3.80701-2.41504-7.60254-2.41504h-24.54419
		c-2.26904,0-2.99719-1.01929-2.18347-3.04724l0.73914-1.84509c0.37683-0.94006,0.93677-1.68262,1.68323-2.22852
		c0.73914-0.53918,1.74316-0.81201,3.00439-0.81201h32.79272c0.95923,0,1.60132-0.40088,1.92236-1.19543l2.06775-5.15845
		C1360.42505,1302.04773,1360.104,1301.64331,1359.14478,1301.64331z M1081.13599,1302.43469
		c-2.12769-0.52539-4.84851-0.79138-8.16296-0.79138h-20.22571c-3.31396,0-6.23279,0.26599-8.75598,0.79138
		c-2.52673,0.52515-4.74768,1.35791-6.66589,2.4978c-1.91858,1.14038-3.58313,2.61572-4.98267,4.42957
		c-1.40344,1.80688-2.62366,4.01453-3.66907,6.62305l-3.74731,9.33923c-1.04504,2.60852-1.59729,4.8269-1.65344,6.65771
		c-0.05963,1.82776,0.41425,3.31018,1.42212,4.45007c1.00024,1.14038,2.5603,1.96606,4.66931,2.47412
		c2.1123,0.50769,4.82214,0.76001,8.13647,0.76001h20.22571c3.31445,0,6.24426-0.25232,8.7821-0.76001
		c2.53821-0.50806,4.76636-1.33374,6.68835-2.47412c1.91479-1.13989,3.56812-2.62231,4.95667-4.45007
		c1.38855-1.83081,2.6051-4.04919,3.65039-6.65771l3.74744-9.33923c1.0448-2.60852,1.60095-4.81616,1.672-6.62305
		c0.0708-1.81384-0.39209-3.28918-1.39612-4.42957C1084.82336,1303.7926,1083.25598,1302.95984,1081.13599,1302.43469z
		 M1075.29492,1316.58313l-3.26587,8.14685c-0.56763,1.41309-1.18323,2.60181-1.85132,3.55884
		c-0.66809,0.96057-1.44434,1.71692-2.32153,2.28027c-0.88086,0.55969-1.92578,0.96045-3.13159,1.19189
		c-1.20935,0.2384-2.65747,0.35242-4.35938,0.35242h-19.43799c-1.7019,0-3.06824-0.11401-4.08337-0.35242
		c-1.01892-0.23145-1.74658-0.6322-2.172-1.19189c-0.43298-0.56335-0.59351-1.3197-0.49304-2.28027
		c0.10095-0.95703,0.43298-2.14575,1.00061-3.55884l3.26587-8.14685c0.56714-1.41309,1.18665-2.59827,1.85474-3.5553
		c0.66809-0.96057,1.44092-1.72412,2.32141-2.28381c0.8772-0.55969,1.92249-0.96057,3.12793-1.19543
		c1.20544-0.23499,2.66504-0.35242,4.36694-0.35242h19.43799c1.7019,0,3.05676,0.11743,4.07568,0.35242
		c1.01892,0.23486,1.7467,0.63574,2.1759,1.19543c0.42957,0.55969,0.59351,1.32324,0.49304,2.28381
		C1076.198,1313.98486,1075.86206,1315.17004,1075.29492,1316.58313z M931.91589,1301.64331h-35.14386
		c-1.3139,0-2.17969,0.5459-2.61652,1.63416l-14.11212,35.19324c-0.32068,0.79468,0.01874,1.19556,1.01892,1.19556h7.06946
		c0.96277,0,1.60107-0.40088,1.92212-1.19556l4.33325-10.81091h21.13995l5.81122,11.2981
		c0.11963,0.25232,0.26526,0.43555,0.43683,0.5459c0.17163,0.11084,0.54504,0.16248,1.11218,0.16248h8.44269
		c0.61188,0,1.03766-0.18335,1.26886-0.5459c0.23163-0.36267,0.27252-0.63232,0.12695-0.81201l-6.57263-11.51575
		c3.65033-0.50415,6.60242-1.66528,8.85315-3.47571c2.25415-1.81042,4.005-4.27026,5.25519-7.38696l1.23907-3.0957
		c1.48175-3.69324,1.50812-6.47803,0.08594-8.3645C940.15717,1302.59009,936.93219,1301.64331,931.91589,1301.64331z
		 M931.05371,1313.92249l-0.91425,2.28064c-0.65314,1.63062-1.60138,2.84351-2.83661,3.63806
		c-1.23181,0.79822-2.96735,1.19202-5.19177,1.19202h-25.06653l4.53088-11.29468c0.172-0.43201,0.54498-0.64954,1.11218-0.64954
		h24.21582c2.22437,0,3.63885,0.39404,4.23633,1.19189C931.73322,1311.07556,931.71069,1312.29187,931.05371,1313.92249z"/>
	<g id="Infidel">
		<path class="st2" d="M740.96063,1176.18713h-15.70209c-2.19458,0-3.64252,0.8811-4.34821,2.63989l-18.84656,47.00232h-0.00165
			l-6.27411,15.65149c-0.32495,0.80139-0.88104,1.19873-1.67975,1.19873h-1.34344c-0.89972,0-1.43695-0.27637-1.60864-0.8396
			l-32.1394-58.57361c-0.78778-1.51978-1.54144-2.73987-2.27301-3.65869c-0.72803-0.92249-1.58649-1.64111-2.56787-2.16309
			c-0.99304-0.51782-2.25085-0.85645-3.78113-1.0188c-1.53375-0.15942-3.49323-0.23865-5.88196-0.23865h-13.16052
			c-4.5871,0-8.32294,0.86011-11.20435,2.58118c-2.88513,1.72034-5.30371,5.0199-7.25946,9.90198l-14.90308,37.15906h-0.00049
			l-12.72711,31.73438c-0.70544,1.76233,0.0896,2.63965,2.38495,2.63965h15.69812c2.19464,0,3.64276-0.87732,4.34821-2.63965
			l12.7276-31.73438h-0.0014l5.25262-13.09814c-0.14929-0.79443-0.23492-1.62036-0.28345-2.37l-0.01892-0.32837l0.65717-0.79468
			l0.5484-0.66333l0.6084,0.38672l5.63586-14.05127c0.32098-0.79834,0.87708-1.1991,1.67609-1.1991h1.34711
			c0.69446,0,1.23169,0.27979,1.60864,0.83606l3.07178,5.573l0.73175-0.26257c0,0,0,0.68738,0,1.02295
			c0.03711,0.00305,0.86963,0.05505,0.86963,0.05505v1.86914c0.47778-0.45947,1.2168-0.8396,2.284-1.10559l1.20581-0.30408
			c0,0,0,0.57727,0,0.89148c0.04077,0.00342,1.25385,0.07947,1.25385,0.07947s-0.97791,2.43604-1.17548,2.92615
			c0.21997,0.43555,1.13092,2.24597,1.13092,2.24597l-0.9483,0.34216l-0.91815,0.28345l24.78314,44.96033
			c0.85077,1.59973,1.66443,2.86108,2.44073,3.77991c0.78027,0.91895,1.66858,1.62378,2.67609,2.10059
			c1.00055,0.48035,2.24689,0.80139,3.72864,0.96082c1.47803,0.16235,3.36682,0.23792,5.65826,0.23792h12.86176
			c4.58356,0,8.31195-0.85645,11.19708-2.57751c2.88513-1.72034,5.30371-5.0199,7.26318-9.9054l8.77875-21.89111h-0.00049
			l4.08722-10.19226c-0.16052-0.07251-0.32452-0.1488-0.44415-0.20422c-0.08563,0.10034-1.42554,1.61365-1.42554,1.61365
			l-0.19409-1.9104l-2.41138-0.15222l0.6012-3.5481l0.13806-0.80176l1.29138,0.08264l0.57831-0.65625
			c0,0,1.06396,0.39026,1.47455,0.53882c0.14178-0.41467,0.29108-0.84631,0.29108-0.84631l1.20929-0.39038l0.29462-0.16931
			l0.78406,0.995l0.15277-0.38342l-0.73151-0.92249c0,0,0.87335-1.50989,1.04529-1.80725v-0.53528
			c-0.12341-0.15576-1.01172-1.27148-1.01172-1.27148s1.48572-0.4906,1.74323-0.57703
			c-0.16815-0.72205-0.3844-1.66895-0.39209-1.76208v-1.36475l1.09009-1.22668l0.60065-0.19312l0.50037,0.03784
			c0,0,0.17896-0.03113,0.35809-0.05872c0.16046-0.49756,0.31-1.01221,0.58246-1.26465
			c-0.08978-0.11414-0.36572-0.46655-0.36572-0.46655v-2.80884c0,0,0.42151,0.03113,0.72382,0.0553c0-0.09668,0-0.59399,0-0.59399
			l1.09357-1.21985l0.3175-0.35608l0.96667,0.07617l5.90063-14.71826
			C743.89447,1177.06824,743.15173,1176.18713,740.96063,1176.18713z M622.3349,1186.60754l1.9259,0.15222l1.29138,1.77209v1.6897
			l-1.4295,1.75537l-1.78778-2.43604V1186.60754z M623.80939,1206.44995l-3.21729,3.94568v-4.05652l1.05975-1.3092l0.31378-0.38721
			l1.84375,0.11743V1206.44995z M624.24585,1203.17456l-2.78436-0.17627v-4.02856l2.78436,0.17603V1203.17456z
			 M631.22162,1195.96387c0,3.75244-1.08612,6.04626-3.22449,6.82043l-0.58252,0.20691l-0.44019-0.40747
			c-1.92212-1.78284-2.8963-3.75916-2.8963-5.87036v-3.59973l0.84351-0.09351l3.24323-0.34204l1.3996,0.10364l1.65717,2.9679
			V1195.96387z M633.96118,1186.48303c-0.14178,0.80518-0.22742,1.68274-0.69397,2.08362l-1.76917,0.52856l-0.08606,0.09692
			l-0.38794-0.25586c-1.53796-0.99829-2.37775-1.97632-2.58673-3.14062v-2.05896l2.03784-1.80383l0.31354-0.27637l0.42944,0.0343
			c1.19788,0.09705,3.24341,0.71912,3.48956,3.82153l0.08209,1.0365
			C634.78979,1186.54883,634.27844,1186.50757,633.96118,1186.48303z M653.25775,1202.09656l-2.74329,3.29639l-1.3476-1.81396v-1.13
			l1.94104-2.32874l0.79852-0.96069l1.35132,1.80725V1202.09656z M660.79315,1197.43921l2.78088,0.20007v3.40674l-2.78088-0.17627
			V1197.43921z M716.34967,1194.9552l0.48492-1.60364l-0.20502,0.46326l0.55591-5.00317l0.10101-0.88074l2.0528,0.1969
			l0.16046,0.6012l0.46283,1.82764v0.52869c0,0-0.22394,0.36255-0.41431,0.67346c0.04083,0.45288,0.41034,4.52979,0.41034,4.52979
			l0.00769,0.44922l-0.05621,0.16565v1.20618l0.48541-0.54956l0.78357-0.8916l1.34766,1.72412v1.65515l-1.86621,2.12134
			l-1.3551-1.72058v-1.57898c-0.04852-0.00366-0.09705-0.00671-0.14154-0.01038c-0.05249,0.15186-0.3399,1.00208-0.3399,1.00208
			l-1.9259-0.12097l-0.59344-2.95068c0,0,0.13434-1.20227,0.18286-1.65515
			C716.42035,1195.04822,716.34967,1194.9552,716.34967,1194.9552z M723.11267,1214.4104l-3.80725-0.24194v-4.59521
			L723.11267,1214.4104z M716.1665,1207.32056l0.6532-0.73938c0,0,0.32867-0.23486,0.65314-0.46313c0-0.39368,0-0.86353,0-0.86353
			s0.04132,0.45251,0.07117,0.81189c0.23511-0.16589,0.48895-0.3457,0.48895-0.3457l1.35089,1.72107v0.22412l0.13086-0.15161
			l0.31702-0.3667l2.69501,0.19348v3.34131l-2.33673-0.14856l-0.83978-1.07129l-2.65741,3.04761v-3.38623l-0.52631-0.67004
			V1207.32056z M723.20203,1191.58264l-1.36603-0.11035l-1.56384-2.00391l0.90344-1.01929l0.32446-0.3595l1.3775,0.11743
			l1.55243,2.00391L723.20203,1191.58264z M726.88586,1199.96484l-2.78412-0.21082v-2.29089l2.78412,0.19714V1199.96484z"/>
		<path class="st2" d="M520.04224,1176.18713h-16.14996c-2.29565,0-3.79605,0.8811-4.50125,2.63989l-31.57602,78.73669
			c-0.7052,1.76233,0.08981,2.63965,2.38522,2.63965h16.14993c2.19089,0,3.63882-0.87732,4.34445-2.63965l12.72739-31.73438
			h-0.00119l17.56198-43.79285l-0.3772-0.5459l0.06342-0.33508c0.30603-1.70703,0.78381-3.2063,1.84753-3.51379
			C522.48315,1176.67749,521.66577,1176.18713,520.04224,1176.18713z"/>
		<path class="st2" d="M624.59668,1189.41626v0.05579c0.18689,0.25171,0.35858,0.48718,0.35858,0.48718L624.59668,1189.41626z"/>
		<path class="st2" d="M1063.63123,1176.18713h-16.15015c-2.29541,0-3.79565,0.8811-4.50098,2.63989l-31.57587,78.73669
			c-0.70538,1.76233,0.08936,2.63965,2.38501,2.63965h16.14996c2.19067,0,3.63879-0.87732,4.34448-2.63965l12.72729-31.73438
			h-0.00085l18.84937-47.00232C1066.56482,1177.06824,1065.8219,1176.18713,1063.63123,1176.18713z"/>
		<path class="st2" d="M717.55896,1207.14099l0.08209,0.00659c-0.03009-0.31763-0.0672-0.72205-0.09705-1.08118
			c-0.03357,0.02417-0.03357,0.02759-0.07117,0.05164v1.11938L717.55896,1207.14099z"/>
		<path class="st2" d="M1252.9552,1178.16663c-5.25525-1.31958-11.91724-1.97949-19.99036-1.97949h-69.98206
			c-2.99329,0-4.96777,1.19873-5.93042,3.59668l-18.46338,46.04553h-0.00098l-12.33887,30.77429
			c-0.96326,2.401,0.04846,3.59973,3.04187,3.59973h69.98157c8.07312,0,15.26562-0.65625,21.58057-1.97949
			c6.30762-1.31982,11.86511-3.36182,16.65747-6.1189c4.79639-2.76062,8.92041-6.28137,12.38428-10.56531
			c3.46338-4.28113,6.36743-9.33923,8.71106-15.18494l6.54309-16.3219c2.34375-5.83911,3.49695-10.89722,3.46741-15.18127
			c-0.02991-4.28101-1.32898-7.80176-3.91162-10.56238C1262.12561,1181.5321,1258.20691,1179.49023,1252.9552,1178.16663z
			 M1225.31726,1239.43872c-2.42249,1.44055-5.25916,2.48071-8.50635,3.12341c-3.24316,0.63916-7.06165,0.95703-11.4469,0.95703
			h-49.047c-1.29907,0-1.73547-0.51843-1.3175-1.56165l6.4679-16.12817h-0.00012l12.54492-31.2821
			c0.44763-1.11597,1.3175-1.67566,2.61609-1.67566h49.047c4.38562,0,7.94629,0.32129,10.67859,0.95703
			c2.73181,0.64246,4.73608,1.68262,6.00134,3.11975c1.2655,1.44116,1.81799,3.36169,1.65344,5.76294
			c-0.16418,2.40173-0.95154,5.36255-2.36255,8.87976l-5.29626,13.20496c-0.14417,0.36023-0.2981,0.6886-0.44592,1.03699
			c-0.6427,1.51392-1.31873,2.91992-2.02856,4.21838c-0.02271,0.04102-0.04651,0.07861-0.06909,0.11938
			c-0.70447,1.27734-1.44067,2.45349-2.21497,3.50842C1229.82971,1236.08044,1227.7356,1238.00159,1225.31726,1239.43872z"/>
		<path class="st2" d="M1481.76782,1177.07166v-0.85022c-0.10803-0.00293-0.1792-0.0343-0.29492-0.0343h-65.79407
			c-7.57654,0-14.23901,0.5802-19.9906,1.73792c-1.22424,0.24524-2.39587,0.53894-3.55664,0.84998
			c-0.2168,0.13464-0.422,0.27295-0.67578,0.40417l-0.24622,0.12781l-0.28381-0.01721
			c-0.11926-0.00696-0.21252-0.0553-0.3208-0.07922c-3.68384,1.09473-7.05408,2.49402-10.06262,4.23914
			c-4.35168,2.51868-8.10303,5.78027-11.24915,9.78137c-3.15015,4.00427-5.88245,8.88281-8.19275,14.64209l-8.27844,20.64417
			c-2.3103,5.76306-3.50073,10.66248-3.5791,14.70447c-0.07458,4.0426,1.05261,7.32141,3.38159,9.84021
			c2.3252,2.51868,5.90833,4.33972,10.74146,5.46216c4.83716,1.11951,11.04431,1.6792,18.62097,1.6792h65.79395
			c2.29163,0,3.78833-0.87732,4.49377-2.63965l4.57605-11.40491c0.7052-1.75879-0.08972-2.63965-2.38147-2.63965h-62.13635h-3.20959
			c-1.3269,0-2.52991-0.0415-3.6759-0.10193c-1.01343-0.05396-1.95068-0.13391-2.82959-0.23279
			c-0.11597-0.01343-0.23804-0.0249-0.35132-0.03906c-0.90259-0.11035-1.73914-0.2428-2.47791-0.4071
			c-2.33289-0.51843-4.0199-1.39929-5.06873-2.63965c-1.04883-1.23694-1.44812-2.91602-1.19812-5.03748
			c0.25378-2.12134,1.00781-4.74011,2.2583-7.86389l0.81714-2.03821h84.48608c2.19434,0,3.64648-0.88135,4.35193-2.64319
			l3.80334-9.48059c0.70508-1.75891-0.0376-2.63965-2.23206-2.63965h-84.48596l0.48145-1.20239
			c1.25037-3.12012,2.5979-5.74231,4.0459-7.86365c1.44836-2.11804,3.19885-3.79712,5.24048-5.03748s4.4375-2.12146,7.18481-2.63965
			c1.07471-0.20386,2.30652-0.33191,3.55664-0.45605l-0.83582-0.89832l-1.03784-1.30261l2.55676-0.94995l1.31006-0.4873v1.31982
			c0.3772,0.17969,1.00024,0.47327,1.00024,0.47327l0.74292,0.9917v0.62512c0.89209-0.03113,1.70923-0.09656,2.66846-0.09656
			h0.21667v-2.50122l-0.86987-0.04187v-2.89514l2.78088,0.16602v2.86389l-0.35461-0.01733l1.83264,2.42566h61.74072
			c2.29175,0,3.79211-0.88098,4.49731-2.64307l4.57214-11.40149c0.27637-0.68799,0.25378-1.1991,0.07117-1.62036
			L1481.76782,1177.07166z M1408.07593,1184.72473l-1.30981-0.06238v1.02246l-0.94055,1.1543l-0.51526-0.03479
			c-1.17944-0.07263-1.73926-1.46106-2.16455-2.9502l-0.33984-1.17517c0,0,1.12732,0.05579,1.24658,0.05872
			c0.05249-0.06543,0.13086-0.15527,0.13086-0.15527l0.7948-0.96716l0.74646,0.99487v-0.89832l2.35132,0.14856V1184.72473z
			 M1447.38147,1186.30005v-4.56738l3.70996,0.20691L1447.38147,1186.30005z"/>
		<path class="st2" d="M1573.39734,1193.88025l-0.11926,0.12805c0.16772,0.17273,0.38794,0.401,0.64551,0.66333
			c0.0376-0.03821,0.04102-0.04492,0.07471-0.07947C1573.73718,1194.28101,1573.51331,1194.01501,1573.39734,1193.88025z"/>
		<path class="st2" d="M948.19666,1176.18713h-65.79437c-7.57666,0-14.23895,0.5802-19.9903,1.73792
			c-5.75159,1.16089-10.80145,3.00244-15.14594,5.52466c-4.35193,2.51868-8.10297,5.78027-11.24957,9.78137
			c-3.1499,4.00427-5.88196,8.88281-8.19232,14.64209l-5.71448,14.2489l0.69818,0.81519v1.13l-0.67578,0.71521l-1.18665,0.77039
			l-0.14209-0.16943l-0.17889,0.44592l0,0l-11.65106,29.05042c-0.00043,0-0.00116-0.00024-0.00165-0.00024l-1.07465,2.6842
			c-0.70569,1.76233,0.08936,2.63965,2.38098,2.63965h16.14996c2.19464,0,3.64276-0.87732,4.34821-2.63965l12.51837-31.20898
			h84.03418c0.47961,0,0.91583-0.05188,1.3175-0.14404c1.45959-0.30042,2.47943-1.11926,3.0307-2.49585l3.80328-9.48071
			c0.70538-1.76233-0.03711-2.64307-2.23199-2.64307h-84.03418l0.9632-2.39783c1.25012-3.12012,2.61987-5.74231,4.1203-7.86365
			c1.49664-2.11804,3.24341-3.79712,5.23651-5.03748c1.98932-1.24036,4.3631-2.12146,7.11414-2.63965
			c2.75073-0.51831,6.06879-0.78088,9.9577-0.78088h64.89832c2.29169,0,3.79236-0.88098,4.49774-2.64307l4.5719-11.40149
			C951.27936,1177.06824,950.48834,1176.18713,948.19666,1176.18713z M842.07434,1196.7793l0.31726-0.32117l1.50763,0.12048
			l0.20905,0.52905c0.6123,1.54419,1.16077,1.97937,1.36603,1.99683l0.87708,0.06885v1.63477l-1.44043,1.46814l-1.17944-0.09351
			l-0.22021-0.15527c-1.17944-0.83289-2.02667-2.01086-2.51935-3.50684l-0.16046-0.48352L842.07434,1196.7793z"/>
		<path class="st2" d="M1655.87903,1243.16003h-60.56128c-3.88916,0-6.99841-0.2594-9.33093-0.78088
			c-2.33301-0.51843-4.0011-1.39966-4.99414-2.63965c-1-1.23682-1.39941-2.9165-1.19812-5.04089
			c0.20178-2.11816,0.94824-4.77856,2.23206-7.98132l19.203-47.89026c0.70532-1.75879-0.03711-2.63989-2.23206-2.63989h-16.14612
			c-0.96277,0-1.75403,0.19006-2.43726,0.50098l-0.04858,0.31421l-0.49988-0.03784c-0.672,0.43884-1.18713,1.047-1.5155,1.86255
			l-4.69141,11.70203l0.14185,0.00671l0.63049,3.59363c0,0-0.37292,0.39709-0.43286,0.46277
			c0.48914,0.58044,1.00769,1.19897,1.00769,1.19897s-0.54846-0.56689-1.0824-1.11951
			c-0.11194,0.11755-0.53345,0.57007-0.53345,0.57007l-1.33997-0.08289l-0.16821-0.20056l-0.55981,1.396l0.82507,0.9812
			c0,0-0.95203,0.67053-1.69849,1.19897l-12.02563,29.98291c-2.07336,5.17175-3.19421,9.60938-3.46948,13.39453l-0.00159-0.00293
			c-0.02991,0.43201-0.10059,0.89868-0.10828,1.31287c-0.07446,4.0426,1.05249,7.32141,3.38171,9.84021
			c0.44934,0.48779,0.97766,0.93237,1.53333,1.36194c0.29395,0.23486,0.59668,0.46472,0.91797,0.68433
			c0.00281,0.00195,0.00537,0.00403,0.00818,0.00598v-0.0011c2.15674,1.47339,4.8938,2.62415,8.2821,3.41101
			c4.8374,1.11951,11.04431,1.6792,18.62073,1.6792h61.4574c2.19434,0,3.6427-0.87732,4.34814-2.63965l4.71753-11.76404
			C1658.81616,1244.04089,1658.07373,1243.16003,1655.87903,1243.16003z M1586.58374,1198.8905l-2.3175-0.1283l-1.63135-1.91382
			l0.96326-1.01953l0.30957-0.32776l2.67603,0.14148V1198.8905z M1582.05286,1185.73694l0.67542-0.70837l0.30627-0.32129
			l1.32495,0.06238l0.91418,1.07458v1.1261l-0.98901,1.04688l-1.33252-0.08289l-0.89929-1.0708V1185.73694z M1574.21094,1217.84473
			c-3.1239,0-3.1239,0-3.3927-0.49731l-0.28345-0.52197l1.71667-1.86914l0.75049-0.82214l3.19116,3.71057H1574.21094z
			 M1570.71753,1209.41089v-2.25964l2.78076,0.1106v2.27002L1570.71753,1209.41089z M1571.38562,1200.11658l0.75781-0.8186
			l1.58984,1.88647l1.5155,2.03149l-5.66943-1.15051L1571.38562,1200.11658z"/>
	</g>
</g>
<g id="Outter_Ring">
	<g id="Earth_Chevron_00000042703424593541787920000002162903841479202736_">
		<path class="st1" d="M1053.9104,207.13892c423.77539,0,767.31335,343.53784,767.31335,767.31335
			s-343.53796,767.31335-767.31335,767.31335s-767.31335-343.53796-767.31335-767.31335S630.13489,207.13892,1053.9104,207.13892
			 M1053.9104,187.13893c-53.40527,0-106.78265,5.38141-158.65002,15.995c-50.55927,10.34595-100.29095,25.78357-147.81403,45.88428
			c-46.6557,19.7336-91.65381,44.15764-133.74432,72.59334c-41.68524,28.16214-80.88379,60.50357-116.50616,96.12619
			c-35.62259,35.62238-67.96402,74.82095-96.12619,116.50616c-28.4357,42.09052-52.85977,87.08862-72.59329,133.74432
			c-20.10077,47.52307-35.53833,97.25476-45.88434,147.81403c-10.61353,51.86737-15.995,105.24475-15.995,158.65002
			c0,53.40515,5.38147,106.78259,15.995,158.65002c10.34601,50.5592,25.78357,100.29089,45.88434,147.81396
			c19.73352,46.65576,44.15759,91.65381,72.59329,133.74426c28.16217,41.6853,60.5036,80.88391,96.12619,116.50623
			c35.62238,35.62268,74.82092,67.96411,116.50616,96.12622c42.09052,28.43579,87.08862,52.85974,133.74432,72.59338
			c47.52307,20.10071,97.25476,35.53833,147.81403,45.88428c51.86737,10.61353,105.24475,15.995,158.65002,15.995
			s106.78259-5.38147,158.65002-15.995c50.5592-10.34595,100.29089-25.78357,147.81396-45.88428
			c46.65576-19.73364,91.65381-44.15759,133.74426-72.59338c41.6853-28.16211,80.88391-60.50354,116.50623-96.12622
			c35.62268-35.62231,67.96411-74.82092,96.12622-116.50623c28.43567-42.09045,52.85974-87.0885,72.59326-133.74426
			c20.10083-47.52307,35.53833-97.25476,45.8844-147.81396c10.61353-51.86743,15.995-105.24487,15.995-158.65002
			c0-53.40527-5.38147-106.78265-15.995-158.65002c-10.34607-50.55927-25.78357-100.29095-45.8844-147.81403
			c-19.73352-46.6557-44.15759-91.65381-72.59326-133.74432c-28.16211-41.68521-60.50354-80.88379-96.12622-116.50616
			c-35.62231-35.62262-74.82092-67.96405-116.50623-96.12619c-42.09045-28.4357-87.0885-52.85974-133.74426-72.59334
			c-47.52307-20.10071-97.25476-35.53833-147.81396-45.88428C1160.69299,192.52034,1107.31567,187.13893,1053.9104,187.13893
			L1053.9104,187.13893z"/>
	</g>
</g>
</svg>
