<?xml version="1.0" encoding="UTF-8"?>
<svg xmlns="http://www.w3.org/2000/svg" viewBox="0 0 1225.41 906.538">
  <defs>
    <style>
      .cls-1, .cls-2 {
        fill-rule: evenodd;
      }

      .cls-1, .cls-3 {
        fill: #05364d;
      }

      .cls-4 {
        fill: #08364d;
      }

      .cls-2, .cls-5 {
        fill: #4c4c4d;
      }
    </style>
  </defs>
  <g id="Layer_1" data-name="Layer 1">
    <g>
      <path id="_150956480" data-name=" 150956480" class="cls-1" d="M750.308,667.82l-27.006,45.006v-.727h143.163l-255.033-346.264-254.817,346.264h142.968v.727l-27.006-45.006-.054,.074c34.822-47.289,80.084-108.752,138.909-188.628h0c58.826,79.875,104.101,141.332,138.93,188.621l-.054-.068Z"/>
      <g id="Earth_Chevron" data-name="Earth Chevron">
        <path class="cls-3" d="M611.541,20c84.4,0,152.819,68.42,152.819,152.819s-68.42,152.819-152.819,152.819-152.819-68.42-152.819-152.819S527.141,20,611.541,20m0-20c-23.322,0-45.956,4.572-67.275,13.589-20.582,8.705-39.062,21.163-54.927,37.028-15.865,15.865-28.323,34.345-37.028,54.927-9.017,21.319-13.589,43.954-13.589,67.275s4.572,45.956,13.589,67.275c8.705,20.582,21.163,39.062,37.028,54.927,15.865,15.865,34.345,28.323,54.927,37.028,21.319,9.017,43.954,13.589,67.275,13.589s45.956-4.572,67.275-13.589c20.582-8.705,39.062-21.163,54.927-37.028,15.865-15.865,28.323-34.345,37.028-54.927,9.017-21.319,13.589-43.954,13.589-67.275s-4.572-45.956-13.589-67.275c-8.705-20.582-21.163-39.062-37.028-54.927-15.865-15.865-34.345-28.323-54.927-37.028-21.319-9.017-43.954-13.589-67.275-13.589h0Z"/>
      </g>
    </g>
    <g id="BSG_Pattern" data-name="BSG Pattern">
      <path class="cls-5" d="M575.729,309.679c9.806,2.592,20.039,4.168,30.566,4.595v-26.826c-4.342-.213-8.604-.668-12.798-1.363l-17.768,23.593h0Z"/>
      <path class="cls-5" d="M568.795,279.139l-30.767,14.348c8.965,5.517,18.609,10.073,28.763,13.507l17.221-22.858c-5.223-1.323-10.3-2.992-15.217-4.996h0Z"/>
      <path class="cls-5" d="M521.996,101.75l-19.051-19.051c-11.676,14.114-20.653,30.533-26.17,48.469l23.966,13.84c3.981-16.011,11.329-30.7,21.255-43.258h0Z"/>
      <path class="cls-5" d="M492.297,248.264h33.32c-8.497-9.739-15.351-20.934-20.2-33.144l-30.727-8.23c3.661,14.843,9.672,28.778,17.608,41.375h0Z"/>
      <path class="cls-5" d="M497.348,172.823c0-5.318,.373-10.554,1.069-15.678l-24.689-14.262c-2.083,9.653-3.193,19.665-3.193,29.939,0,7.241,.561,14.348,1.617,21.295l28.936,7.748c-2.431-9.271-3.74-19.003-3.74-29.043h0Z"/>
      <path class="cls-5" d="M606.295,58.191V31.365c-37.42,1.523-71.099,17.561-95.547,42.637l18.957,18.95c19.598-20.219,46.572-33.258,76.59-34.761h0Z"/>
      <path class="cls-5" d="M718.844,215.119c-4.863,12.211-11.703,23.406-20.2,33.144h33.32c7.935-12.597,13.947-26.531,17.608-41.375l-30.727,8.23h0Z"/>
      <path class="cls-5" d="M723.519,145.008l23.966-13.84c-5.531-17.936-14.508-34.355-26.184-48.469l-19.051,19.051c9.94,12.558,17.288,27.247,21.269,43.258h0Z"/>
      <path class="cls-5" d="M726.912,172.823c0,10.04-1.335,19.772-3.74,29.043l28.936-7.748c1.042-6.947,1.603-14.054,1.603-21.295,0-10.274-1.096-20.286-3.179-29.939l-24.689,14.262c.695,5.123,1.068,10.36,1.068,15.678h0Z"/>
      <path class="cls-5" d="M617.959,31.365v26.826c30.025,1.503,56.985,14.535,76.597,34.761l18.944-18.95c-24.449-25.076-58.115-41.115-95.541-42.637h0Z"/>
      <path class="cls-5" d="M537.386,259.928h-36.872c8.283,10.608,18.048,19.999,28.977,27.868l28.964-13.493c-7.562-4.008-14.63-8.844-21.069-14.375h0Z"/>
      <path class="cls-5" d="M665.805,274.303l28.964,13.493c10.928-7.869,20.68-17.26,28.964-27.868h-36.872c-6.439,5.531-13.493,10.367-21.055,14.375h0Z"/>
      <path class="cls-5" d="M640.235,284.135l17.234,22.858c10.152-3.434,19.772-7.989,28.749-13.507l-30.753-14.348c-4.917,2.004-9.994,3.673-15.23,4.996h0Z"/>
      <path class="cls-5" d="M617.959,287.448v26.826c10.52-.427,20.754-2.003,30.56-4.595l-17.769-23.593c-4.194,.695-8.449,1.149-12.791,1.363h0Z"/>
      <g>
        <path class="cls-5" d="M672.066,98.032l6.769-11.736c-1.775-1.296-3.587-2.534-5.438-3.737l-6.731,11.671-3.737,6.493c1.813,1.22,3.625,2.515,5.364,3.856,21.899,16.971,36.031,43.522,36.031,73.385s-14.132,56.415-36.031,73.395c-1.739,1.332-3.551,2.627-5.364,3.847-3.256,2.184-6.66,4.144-10.173,5.883-1.96,.962-3.959,1.886-6.031,2.718-10.838,4.459-22.723,6.936-35.19,6.936s-24.341-2.477-35.199-6.936c-2.034-.831-4.032-1.756-5.993-2.718-3.532-1.739-6.936-3.699-10.173-5.883-1.85-1.22-3.625-2.515-5.364-3.847-21.918-16.98-36.031-43.541-36.031-73.395s14.113-56.415,36.031-73.385c1.739-1.341,3.513-2.637,5.364-3.856l-3.754-6.493-6.733-11.671c-1.85,1.203-3.663,2.441-5.419,3.737l6.769,11.736c-24.138,18.312-39.751,47.297-39.751,79.933s15.613,61.631,39.751,79.924c1.756,1.332,3.551,2.589,5.383,3.792,3.273,2.165,6.658,4.125,10.173,5.883,1.961,.998,3.94,1.941,5.974,2.792,11.986,5.069,25.155,7.862,38.972,7.862s27.015-2.794,39.001-7.862c2.034-.85,3.995-1.794,5.955-2.792,3.515-1.758,6.919-3.718,10.175-5.864,1.849-1.203,3.625-2.479,5.4-3.811,24.121-18.293,39.732-47.295,39.732-79.924s-15.611-61.621-39.732-79.933h0Z"/>
        <path class="cls-5" d="M570.344,94.841c1.96-.97,3.959-1.886,5.993-2.718,10.859-4.459,22.751-6.936,35.199-6.936s24.352,2.477,35.19,6.936c2.072,.831,4.07,1.748,6.031,2.718l3.735-6.483,6.733-11.681c-1.922-.998-3.921-1.941-5.919-2.83l-6.77,11.719c-11.986-5.059-25.164-7.862-39.001-7.862s-26.987,2.803-38.972,7.862l-6.769-11.719c-2.017,.888-3.996,1.832-5.938,2.83l6.733,11.681,3.754,6.483h0Z"/>
      </g>
    </g>
    <path id="Jedi_Order" data-name="Jedi Order" class="cls-1" d="M608.647,210.375c-1.821-2.658-11.538-16.84-11.538-16.84l7.405,20.367-22.958,3.333,22.958,3.333-8.887,17.404s11.088-11.656,12.654-13.303c-.646,25.237-.804,31.448-.804,31.448,0,0-56.656-26.292-25.181-84.431,0,0-39.252-43.326-3.703-69.988,0,0-60.729,36.66-22.218,99.613,0,0-31.846-31.106-15.182-62.583,0,0-28.883,40.734,6.295,85.542,0,0-9.628-5.926-18.144-28.514,0,0,6.213,67.246,81.447,68.128v.009c.251,0,.501-.002,.75-.002,.249,.002,.499,.002,.75,.002v-.009c75.235-.882,81.447-68.128,81.447-68.128-8.517,22.588-18.144,28.514-18.144,28.514,35.179-44.808,6.295-85.542,6.295-85.542,16.663,31.477-15.183,62.583-15.183,62.583,38.511-62.953-22.218-99.613-22.218-99.613,35.549,26.662-3.703,69.988-3.703,69.988,31.475,58.139-25.18,84.431-25.18,84.431,0,0-.159-6.211-.804-31.448,1.566,1.647,12.654,13.303,12.654,13.303l-8.887-17.404,22.958-3.333-22.958-3.333,7.405-20.367s-9.717,14.182-11.538,16.84c-.825-32.237-2.871-112.222-2.88-112.599-.004-.887-.004-.892-.004-.892,0,0,0,0-.009,.369-.009-.368-.009-.369-.009-.369,0,0,0,.005-.004,.892-.016,.631-2.057,80.436-2.88,112.599"/>
  </g>
  <g id="US_Flag_Play" data-name="US Flag Play">
    <path class="cls-2" d="M537.654,426.205l45.966-60.369H297.725c-60.19,0-70.266,35.67-83.618,60.369h323.546Z"/>
    <path class="cls-2" d="M484.158,497.86l45.966-60.369H244.229c-60.19,0-70.266,35.67-83.618,60.369H484.158Z"/>
    <path class="cls-2" d="M430.391,569.515l45.966-60.369H190.462c-60.19,0-70.266,35.67-83.618,60.369H430.391Z"/>
    <path class="cls-2" d="M376.625,641.171l45.966-60.369H136.696c-60.19,0-70.266,35.67-83.618,60.369H376.625Z"/>
    <path class="cls-2" d="M323.546,712.826l45.966-60.369H83.618c-60.19,0-70.266,35.67-83.618,60.369H323.546Z"/>
    <path class="cls-2" d="M687.756,426.205l-45.966-60.369h285.894c60.19,0,70.266,35.67,83.618,60.369,0,0-323.545,0-323.546,0Z"/>
    <path class="cls-2" d="M741.252,497.86l-45.966-60.369h285.894c60.19,0,70.266,35.67,83.618,60.369,0,0-323.545,0-323.546,0Z"/>
    <path class="cls-2" d="M795.019,569.515l-45.966-60.369h285.894c60.19,0,70.266,35.67,83.618,60.369,0,0-323.545,0-323.546,0Z"/>
    <path class="cls-2" d="M848.785,641.171l-45.966-60.369h285.894c60.19,0,70.266,35.67,83.618,60.369,0,0-323.545,0-323.546,0Z"/>
    <path class="cls-2" d="M901.863,712.826l-45.966-60.369h285.894c60.19,0,70.266,35.67,83.618,60.369,0,0-323.545,0-323.546,0Z"/>
  </g>
  <g id="Infidel_Props" data-name="Infidel Props">
    <g id="Arrows">
      <path class="cls-4" d="M1064.232,888.827c-.041,.052-.097,.121-.097,.121,0,0-.052-.062-.109-.128l-1.448-.035c-.373,.46-.732,.902-.732,.902v-.922l-123.396-3.113-3.71,10.859,290.669-3.617-161.178-4.067Z"/>
      <path class="cls-4" d="M0,885.652l251.64,6.329c0-.014-.011-.024-.011-.038v-.898l2.019-1.904,.937-.884,1.575,2.899v.933l37.29,.805,3.997-10.859L0,885.652Z"/>
    </g>
    <path id="Props" class="cls-3" d="M358.703,868.515h-35.144c-1.314,0-2.18,.546-2.616,1.634l-8.835,22.033c.101,.967,.198,1.873,.198,1.873l-.522,8.986,1.661,3.497h1.474c.963,0,1.601-.401,1.922-1.195l4.18-10.427h27.097c5.016,0,8.995-.943,11.936-2.823,.015-.007,.022-.021,.037-.028v-.698l1.082-1.254,.851-.985,.575,.867c1.687-1.679,3.064-3.745,4.076-6.268l1.612-4.022c1.482-3.693,1.508-6.478,.086-8.364-1.429-1.88-4.654-2.826-9.671-2.826Zm-1.493,24.621l-2.788,.041v-2.273l1.818-.028,.97-.014v2.273Zm.612-12.289l-.829,2.066c-.653,1.627-1.605,2.843-2.837,3.638-1.235,.798-2.967,1.192-5.192,1.192h-25.067l4.441-11.077c.172-.432,.545-.653,1.112-.653h24.216c2.224,0,3.639,.401,4.232,1.199,.597,.795,.575,2.007-.078,3.635Zm-50.812,24.044l-.179,.453c-.321,.795,.019,1.195,1.019,1.195h1.168l.067-.463c-.037-.453-.078-.826-.119-1.226l-1.956,.041Zm471.853-36.375h-35.144c-1.314,0-2.18,.546-2.616,1.634l-14.112,35.193c-.321,.795,.019,1.195,1.019,1.195h7.069c.963,0,1.601-.401,1.922-1.195l4.18-10.427h27.097c5.016,0,8.995-.943,11.936-2.823,2.933-1.883,5.139-4.671,6.621-8.365l1.612-4.022c1.481-3.693,1.508-6.478,.086-8.364-1.429-1.88-4.654-2.826-9.671-2.826Zm-.881,12.331l-.829,2.066c-.653,1.627-1.605,2.843-2.837,3.638-1.236,.798-2.967,1.192-5.192,1.192h-25.067l4.441-11.077c.172-.432,.545-.653,1.112-.653h24.216c2.224,0,3.639,.401,4.232,1.199,.597,.795,.575,2.007-.078,3.635Zm145.211-12.331h-34.689c-3.971,0-7.222,.819-9.749,2.446-2.531,1.631-4.326,3.77-5.386,6.413l-1.59,3.963c-1.206,3.006-1.172,5.314,.104,6.924,1.273,1.61,3.807,2.419,7.599,2.419h24.544c2.269,0,2.997,1.012,2.187,3.041l-.19,.473c.049-.007,.082-.045,.135-.048l.448-.014,.515-.014,.907,1.178v.283c0,2.474-.743,3.766-2.228,3.842l-.948,.031-.97-1.247,.063-.332c-.105,.093-.187,.218-.302,.3-.739,.546-1.743,.812-3.008,.812h-34.36c-1.004,0-1.664,.401-1.985,1.195l-2.068,5.162c-.321,.795,.019,1.195,1.023,1.195h36.26c3.971,0,7.218-.819,9.752-2.443,2.527-1.634,4.326-3.766,5.386-6.409l1.739-4.347c1.205-3.006,1.168-5.314-.105-6.924-1.269-1.614-3.807-2.415-7.603-2.415h-24.544c-2.269,0-2.997-1.019-2.183-3.047l.739-1.845c.377-.94,.937-1.683,1.683-2.229,.739-.539,1.743-.812,3.004-.812h32.793c.959,0,1.601-.401,1.922-1.195l2.068-5.158c.317-.795-.004-1.199-.963-1.199Zm-278.009,.791c-2.128-.525-4.849-.791-8.163-.791h-20.226c-3.314,0-6.233,.266-8.756,.791-2.527,.525-4.748,1.358-6.666,2.498-1.919,1.14-3.583,2.616-4.983,4.43-1.403,1.807-2.624,4.015-3.669,6.623l-3.747,9.339c-1.045,2.609-1.597,4.827-1.653,6.658-.06,1.828,.414,3.31,1.422,4.45,1,1.14,2.56,1.966,4.669,2.474,2.112,.508,4.822,.76,8.137,.76h20.226c3.314,0,6.244-.252,8.782-.76,2.538-.508,4.766-1.334,6.688-2.474,1.915-1.14,3.568-2.622,4.957-4.45,1.389-1.831,2.605-4.049,3.65-6.658l3.747-9.339c1.045-2.609,1.601-4.816,1.672-6.623,.071-1.814-.392-3.289-1.396-4.43-1.004-1.14-2.571-1.973-4.691-2.498Zm-5.841,14.148l-3.266,8.147c-.568,1.413-1.183,2.602-1.851,3.559-.668,.961-1.444,1.717-2.321,2.28-.881,.56-1.926,.961-3.132,1.192-1.209,.238-2.657,.352-4.359,.352h-19.438c-1.702,0-3.068-.114-4.083-.352-1.019-.231-1.747-.632-2.172-1.192-.433-.563-.594-1.32-.493-2.28,.101-.957,.433-2.146,1.001-3.559l3.266-8.147c.567-1.413,1.187-2.598,1.855-3.555,.668-.961,1.441-1.724,2.321-2.284,.877-.56,1.922-.961,3.128-1.195s2.665-.352,4.367-.352h19.438c1.702,0,3.057,.117,4.076,.352s1.747,.636,2.176,1.195c.43,.56,.594,1.323,.493,2.284-.101,.957-.437,2.142-1.004,3.555Zm-143.379-14.94h-35.144c-1.314,0-2.18,.546-2.617,1.634l-14.112,35.193c-.321,.795,.019,1.195,1.019,1.195h7.069c.963,0,1.601-.401,1.922-1.195l4.333-10.811h21.14l5.811,11.298c.12,.252,.265,.436,.437,.546,.172,.111,.545,.162,1.112,.162h8.443c.612,0,1.038-.183,1.269-.546,.232-.363,.273-.632,.127-.812l-6.573-11.516c3.65-.504,6.602-1.665,8.853-3.476,2.254-1.81,4.005-4.27,5.255-7.387l1.239-3.096c1.482-3.693,1.508-6.478,.086-8.364-1.429-1.88-4.654-2.826-9.671-2.826Zm-.862,12.279l-.914,2.281c-.653,1.631-1.601,2.843-2.837,3.638-1.232,.798-2.967,1.192-5.192,1.192h-25.067l4.531-11.295c.172-.432,.545-.65,1.112-.65h24.216c2.224,0,3.639,.394,4.236,1.192,.593,.795,.571,2.011-.086,3.642Z"/>
    <g id="Infidel">
      <path class="cls-5" d="M305.009,743.059h-15.702c-2.195,0-3.643,.881-4.348,2.64l-18.847,47.002h-.002l-6.274,15.652c-.325,.801-.881,1.199-1.68,1.199h-1.343c-.9,0-1.437-.276-1.609-.84l-32.139-58.574c-.788-1.52-1.541-2.74-2.273-3.659-.728-.922-1.586-1.641-2.568-2.163-.993-.518-2.251-.856-3.781-1.019-1.534-.159-3.493-.239-5.882-.239h-13.161c-4.587,0-8.323,.86-11.204,2.581-2.885,1.72-5.304,5.02-7.259,9.902l-14.903,37.159h0l-12.727,31.734c-.705,1.762,.09,2.64,2.385,2.64h15.698c2.195,0,3.643-.877,4.348-2.64l12.728-31.734h-.001l5.253-13.098c-.149-.794-.235-1.62-.283-2.37l-.019-.328,.657-.795,.548-.663,.608,.387,5.636-14.051c.321-.798,.877-1.199,1.676-1.199h1.347c.694,0,1.232,.28,1.609,.836l3.072,5.573,.732-.263v1.023c.037,.003,.87,.055,.87,.055v1.869c.478-.46,1.217-.84,2.284-1.106l1.206-.304v.891c.041,.003,1.254,.079,1.254,.079,0,0-.978,2.436-1.175,2.926,.22,.436,1.131,2.246,1.131,2.246l-.948,.342-.918,.284,24.783,44.96c.851,1.6,1.664,2.861,2.441,3.78,.78,.919,1.669,1.624,2.676,2.101,1.001,.48,2.247,.801,3.729,.961,1.478,.162,3.367,.238,5.658,.238h12.862c4.584,0,8.312-.856,11.197-2.577,2.885-1.72,5.304-5.02,7.263-9.905l8.779-21.891h0l4.087-10.192c-.16-.073-.324-.149-.444-.204-.086,.1-1.426,1.614-1.426,1.614l-.194-1.91-2.411-.152,.601-3.548,.138-.802,1.291,.083,.578-.656s1.064,.39,1.475,.539c.142-.415,.291-.846,.291-.846l1.209-.39,.295-.169,.784,.995,.153-.384-.732-.922s.873-1.51,1.045-1.807v-.535c-.123-.156-1.012-1.271-1.012-1.271,0,0,1.486-.491,1.743-.577-.168-.722-.384-1.669-.392-1.762v-1.365l1.09-1.227,.601-.193,.5,.038s.179-.031,.358-.059c.16-.498,.31-1.012,.582-1.265-.09-.114-.366-.467-.366-.467v-2.809s.422,.031,.724,.055v-.594l1.094-1.22,.317-.356,.967,.076,5.901-14.718c.706-1.759-.037-2.64-2.228-2.64Zm-118.626,10.42l1.926,.152,1.291,1.772v1.69l-1.429,1.755-1.788-2.436v-2.933Zm1.475,19.842l-3.217,3.946v-4.056l1.06-1.309,.314-.387,1.844,.117v1.69Zm.436-3.275l-2.784-.176v-4.029l2.784,.176v4.029Zm6.976-7.211c0,3.752-1.086,6.046-3.225,6.82l-.582,.207-.44-.407c-1.922-1.783-2.896-3.759-2.896-5.87v-3.6l.844-.094,3.243-.342,1.4,.104,1.657,2.968v.214Zm2.74-9.481c-.142,.805-.227,1.683-.694,2.084l-1.769,.529-.086,.097-.388-.256c-1.538-.998-2.378-1.976-2.587-3.141v-2.059l2.038-1.804,.314-.276,.429,.034c1.198,.097,3.243,.719,3.49,3.822l.082,1.037s-.511-.041-.829-.066Zm19.297,15.614l-2.743,3.296-1.348-1.814v-1.13l1.941-2.329,.798-.961,1.351,1.807v1.13Zm7.535-4.657l2.781,.2v3.407l-2.781-.176v-3.431Zm55.556-2.484l.485-1.604-.205,.463,.556-5.003,.101-.881,2.053,.197,.16,.601,.463,1.828v.529s-.224,.363-.414,.674c.041,.453,.41,4.53,.41,4.53l.008,.449-.056,.166v1.206l.485-.55,.784-.892,1.348,1.724v1.655l-1.866,2.121-1.355-1.721v-1.579c-.049-.004-.097-.007-.142-.01-.052,.152-.34,1.002-.34,1.002l-1.926-.121-.593-2.951s.134-1.202,.183-1.655c-.067-.086-.138-.179-.138-.179Zm6.763,19.455l-3.807-.242v-4.595l3.807,4.837Zm-6.946-7.09l.653-.739s.329-.235,.653-.463v-.864s.041,.453,.071,.812c.235-.166,.489-.346,.489-.346l1.351,1.721v.224l.131-.152,.317-.367,2.695,.193v3.341l-2.337-.149-.84-1.071-2.657,3.048v-3.386l-.526-.67v-1.133Zm7.036-15.738l-1.366-.11-1.564-2.004,.903-1.019,.324-.36,1.377,.117,1.552,2.004-1.228,1.372Zm3.684,8.382l-2.784-.211v-2.291l2.784,.197v2.305Z"/>
      <path class="cls-5" d="M84.09,743.059h-16.15c-2.296,0-3.796,.881-4.501,2.64l-31.576,78.737c-.705,1.762,.09,2.64,2.385,2.64h16.15c2.191,0,3.639-.877,4.344-2.64l12.727-31.734h-.001l17.562-43.793-.377-.546,.063-.335c.306-1.707,.784-3.206,1.848-3.514-.033-.964-.851-1.455-2.474-1.455Z"/>
      <path class="cls-5" d="M188.645,756.288v.056c.187,.252,.359,.487,.359,.487l-.359-.543Z"/>
      <path class="cls-5" d="M627.679,743.059h-16.15c-2.295,0-3.796,.881-4.501,2.64l-31.576,78.737c-.705,1.762,.089,2.64,2.385,2.64h16.15c2.191,0,3.639-.877,4.344-2.64l12.727-31.734h0l18.849-47.002c.705-1.759-.038-2.64-2.228-2.64Z"/>
      <path class="cls-5" d="M281.607,774.013l.082,.007c-.03-.318-.067-.722-.097-1.081-.034,.024-.034,.028-.071,.052v1.119l.086-.097Z"/>
      <path class="cls-5" d="M817.003,745.039c-5.255-1.32-11.917-1.98-19.99-1.98h-69.982c-2.993,0-4.968,1.199-5.93,3.597l-18.463,46.045h0l-12.339,30.774c-.963,2.401,.049,3.6,3.042,3.6h69.982c8.073,0,15.266-.656,21.581-1.98,6.308-1.32,11.865-3.362,16.658-6.119,4.796-2.761,8.92-6.281,12.384-10.565,3.463-4.281,6.367-9.339,8.711-15.185l6.543-16.322c2.344-5.839,3.497-10.897,3.467-15.181-.03-4.281-1.329-7.802-3.912-10.562-2.579-2.757-6.498-4.799-11.75-6.123Zm-27.638,61.272c-2.423,1.441-5.259,2.481-8.506,3.123-3.243,.639-7.062,.957-11.447,.957h-49.047c-1.299,0-1.736-.518-1.318-1.562l6.468-16.128h0l12.545-31.282c.448-1.116,1.318-1.676,2.616-1.676h49.047c4.386,0,7.946,.321,10.679,.957,2.732,.642,4.736,1.683,6.001,3.12,1.266,1.441,1.818,3.362,1.653,5.763-.164,2.402-.952,5.362-2.363,8.88l-5.296,13.205c-.144,.36-.298,.689-.446,1.037-.643,1.514-1.319,2.92-2.029,4.218-.023,.041-.046,.079-.069,.119-.704,1.277-1.441,2.454-2.215,3.508-1.762,2.401-3.856,4.322-6.274,5.76Z"/>
      <path class="cls-5" d="M1045.816,743.943v-.85c-.108-.003-.179-.034-.295-.034h-65.794c-7.576,0-14.239,.58-19.991,1.738-1.224,.245-2.396,.539-3.557,.85-.217,.135-.422,.273-.676,.404l-.246,.128-.284-.017c-.119-.007-.213-.055-.321-.079-3.684,1.095-7.054,2.494-10.063,4.239-4.352,2.519-8.103,5.78-11.249,9.781-3.15,4.004-5.882,8.883-8.193,14.642l-8.278,20.644c-2.31,5.763-3.501,10.662-3.579,14.704-.075,4.043,1.053,7.321,3.382,9.84,2.325,2.519,5.908,4.34,10.742,5.462,4.837,1.119,11.044,1.679,18.621,1.679h65.794c2.292,0,3.788-.877,4.494-2.64l4.576-11.405c.705-1.759-.09-2.64-2.381-2.64h-65.346c-1.327,0-2.53-.041-3.676-.102-1.013-.054-1.951-.134-2.83-.233-.116-.013-.238-.025-.351-.039-.903-.11-1.739-.243-2.478-.407-2.333-.518-4.02-1.399-5.069-2.64-1.049-1.237-1.448-2.916-1.198-5.037,.254-2.121,1.008-4.74,2.258-7.864l.817-2.038h84.486c2.194,0,3.647-.881,4.352-2.643l3.803-9.481c.705-1.759-.038-2.64-2.232-2.64h-84.486l.481-1.202c1.25-3.12,2.598-5.742,4.046-7.864,1.448-2.118,3.199-3.797,5.24-5.037s4.438-2.121,7.185-2.64c1.075-.204,2.307-.332,3.557-.456l-.836-.898-1.038-1.303,2.557-.95,1.31-.487v1.32c.377,.18,1,.473,1,.473l.743,.992v.625c.892-.031,1.709-.097,2.668-.097h.217v-2.501l-.87-.042v-2.895l2.781,.166v2.864l-.355-.017,1.833,2.426h61.741c2.292,0,3.792-.881,4.497-2.643l4.572-11.401c.276-.688,.254-1.199,.071-1.62l-2.154-.135Zm-73.692,7.653l-1.31-.062v1.022l-.941,1.154-.515-.035c-1.179-.073-1.739-1.461-2.165-2.95l-.34-1.175s1.127,.056,1.247,.059c.052-.065,.131-.155,.131-.155l.795-.967,.746,.995v-.898l2.351,.149v2.864Zm39.306,1.575v-4.567l3.71,.207-3.71,4.36Z"/>
      <path class="cls-5" d="M1137.446,760.752l-.119,.128c.168,.173,.388,.401,.645,.663,.038-.038,.041-.045,.075-.079-.261-.311-.485-.577-.601-.712Z"/>
      <path class="cls-5" d="M512.245,743.059h-65.794c-7.577,0-14.239,.58-19.99,1.738-5.752,1.161-10.801,3.002-15.146,5.525-4.352,2.519-8.103,5.78-11.25,9.781-3.15,4.004-5.882,8.883-8.192,14.642l-5.714,14.249,.698,.815v1.13l-.676,.715-1.187,.77-.142-.17-.179,.446h0l-11.651,29.05s-.001,0-.002,0l-1.075,2.684c-.706,1.762,.089,2.64,2.381,2.64h16.15c2.195,0,3.643-.877,4.348-2.64l12.518-31.209h84.034c.48,0,.916-.052,1.318-.144,1.46-.3,2.479-1.119,3.031-2.496l3.803-9.481c.705-1.762-.037-2.643-2.232-2.643h-84.034l.963-2.398c1.25-3.12,2.62-5.742,4.12-7.864,1.497-2.118,3.243-3.797,5.237-5.037,1.989-1.24,4.363-2.121,7.114-2.64,2.751-.518,6.069-.781,9.958-.781h64.898c2.292,0,3.792-.881,4.498-2.643l4.572-11.401c.705-1.759-.086-2.64-2.377-2.64Zm-106.122,20.592l.317-.321,1.508,.12,.209,.529c.612,1.544,1.161,1.979,1.366,1.997l.877,.069v1.635l-1.44,1.468-1.179-.094-.22-.155c-1.179-.833-2.027-2.011-2.519-3.507l-.16-.483,1.243-1.258Z"/>
      <path class="cls-5" d="M1219.927,810.032h-60.561c-3.889,0-6.998-.259-9.331-.781-2.333-.518-4.001-1.4-4.994-2.64-1-1.237-1.399-2.916-1.198-5.041,.202-2.118,.948-4.779,2.232-7.981l19.203-47.89c.705-1.759-.037-2.64-2.232-2.64h-16.146c-.963,0-1.754,.19-2.437,.501l-.049,.314-.5-.038c-.672,.439-1.187,1.047-1.516,1.862l-4.691,11.702,.142,.007,.631,3.594s-.373,.397-.433,.463c.489,.58,1.008,1.199,1.008,1.199,0,0-.548-.567-1.082-1.119-.112,.117-.533,.57-.533,.57l-1.34-.083-.168-.201-.56,1.396,.825,.981s-.952,.67-1.698,1.199l-12.026,29.983c-2.073,5.172-3.194,9.609-3.469,13.395l-.002-.003c-.03,.432-.101,.899-.108,1.313-.074,4.043,1.053,7.321,3.382,9.84,.449,.488,.978,.932,1.533,1.362,.294,.235,.597,.465,.918,.684,.003,.002,.005,.004,.008,.006h0c2.157,1.472,4.894,2.623,8.282,3.41,4.837,1.119,11.044,1.679,18.621,1.679h61.457c2.194,0,3.643-.877,4.348-2.64l4.717-11.764c.705-1.759-.037-2.64-2.232-2.64Zm-69.295-44.27l-2.318-.128-1.631-1.914,.963-1.019,.31-.328,2.676,.141v3.248Zm-4.531-13.154l.675-.708,.306-.321,1.325,.062,.914,1.075v1.126l-.989,1.047-1.332-.083-.899-1.071v-1.127Zm-7.842,32.108q-3.124,0-3.393-.497l-.283-.522,1.717-1.869,.75-.822,3.191,3.711h-1.982Zm-3.493-8.434v-2.26l2.781,.111v2.27l-2.781-.121Zm.668-9.294l.758-.819,1.59,1.886,1.516,2.032-5.669-1.151,1.806-1.949Z"/>
    </g>
  </g>
</svg>